<svg xmlns="http://www.w3.org/2000/svg" viewBox="0 0 400 400"><g fill-rule="evenodd"><path fill="#7228e4" d="M312.875 85.164c-38.405 2.786-68.53 16.63-95.88 44.062-13.762 13.804-22.363 25.4-35.248 47.524-10.385 17.83-27.425 47.137-27.666 47.583-.205.377-3.052-4.289-16.227-26.591-11.698-19.803-16.338-27.443-17.318-28.52-3.005-3.302-8.178-4.556-12.312-2.985-2.562.973-47.494 27.795-48.875 29.175-3.122 3.121-4.138 8.477-2.367 12.481.635 1.436 57.082 96.864 58.419 98.762 4.23 6.004 11.709 10.32 19.157 11.054 2.995.296 37.172.099 39.887-.23 5.698-.688 10.953-3.227 15.324-7.402 3.11-2.972-1.401 4.579 44.924-75.202 22.844-39.342 24.542-41.877 35.172-52.512 12.878-12.882 24.572-19.033 41.51-21.83 8.503-1.404 11.219-3.219 12.956-8.658.804-2.519 9.745-53.387 9.739-55.404-.016-4.619-2.543-8.433-6.983-10.535l-1.712-.811-5.625-.026c-3.094-.014-6.187.016-6.875.065M305 191.16c-31.358 3.875-47.621 39.21-30.135 65.474 14.943 22.443 47.339 25.054 65.755 5.301 10.604-11.374 14.119-27.434 9.232-42.185-6.182-18.663-25.507-30.981-44.852-28.59"/><path fill="#fbfbfc" d="M0 200v200h400V0H0v200M326.25 85.39c4.408 1.516 7.647 5.745 7.932 10.36.11 1.764-8.262 50.4-9.569 55.597-1.44 5.723-4.797 8.023-13.738 9.409-22.242 3.45-40.009 16.21-55.995 40.216-1.877 2.818-14.404 24.13-31.758 54.028-15.762 27.156-29.03 49.942-29.484 50.636-4.441 6.787-11.962 11.26-20.352 12.104-4.284.43-37.395.342-40.167-.108-7.638-1.239-14.359-5.597-18.497-11.994-3.939-6.089-57.559-97.195-58.053-98.638-1.414-4.131-.311-8.575 2.913-11.737 1.994-1.955 46.285-28.312 49.217-29.288 3.875-1.289 8.711-.113 11.625 2.829 1.048 1.057 4.492 6.706 17.266 28.321 8.776 14.85 16.032 27.081 16.126 27.18.093.099 7.08-11.713 15.526-26.25 19.033-32.757 18.325-31.565 22.624-38.055 29.393-44.367 67.851-69.48 113.884-74.365 9.237-.98 18.056-1.086 20.5-.245m-8.995 106.088c29.087 4.991 44.223 38.491 28.753 63.642-17.501 28.455-59.491 26.476-74.146-3.495-15.131-30.945 11.32-65.994 45.393-60.147"/><path fill="#bf9af3" d="M318.199 84.936c1.141.047 2.941.046 4 0 1.059-.047.126-.085-2.074-.085-2.2.001-3.067.039-1.926.085m-6.136.243a5.55 5.55 0 0 0 1.375 0c.378-.057.068-.104-.688-.104s-1.066.047-.687.104m-3.375.247c.309.06.815.06 1.125 0 .309-.059.056-.108-.563-.108s-.872.049-.562.108m-2.625.246c.24.063.634.063.875 0 .24-.063.043-.114-.438-.114s-.678.051-.437.114m20.958.171c.257.23 1.729.907 1.729.795 0-.144-1.386-.888-1.654-.888-.099 0-.132.042-.075.093M330 87.578c0 .043.366.409.813.813l.812.734-.734-.812c-.685-.758-.891-.928-.891-.735m4.058 7.672c0 .481.051.678.114.438a2.05 2.05 0 0 0 0-.875c-.063-.241-.114-.044-.114.437m-116.933 33.5c-2.059 2.063-3.687 3.75-3.619 3.75.069 0 1.81-1.687 3.869-3.75 2.059-2.062 3.687-3.75 3.619-3.75-.069 0-1.81 1.688-3.869 3.75m-6.016 6.313-.734.812.813-.734c.446-.404.812-.77.812-.813 0-.193-.206-.023-.891.735m-90.859 33.812c.466.481.904.875.973.875.069 0-.257-.394-.723-.875-.466-.481-.904-.875-.973-.875-.069 0 .257.394.723.875m146.359 16.688-.734.812.813-.734c.757-.685.927-.891.734-.891-.043 0-.409.366-.813.813m41.829 5.371c.721.051 1.903.051 2.625 0 .721-.05.131-.092-1.313-.092s-2.034.042-1.312.092m-28.57 12.379-1.743 1.812 1.813-1.743c1.683-1.619 1.926-1.882 1.743-1.882-.038 0-.854.816-1.813 1.813m59.632-.188c.886.894 1.667 1.625 1.736 1.625.068 0-.6-.731-1.486-1.625s-1.667-1.625-1.736-1.625c-.068 0 .6.731 1.486 1.625M267.592 233c0 1.444.042 2.034.092 1.313.051-.722.051-1.904 0-2.625-.05-.722-.092-.132-.092 1.312m84.5.25c0 1.444.042 2.034.092 1.313.051-.722.051-1.904 0-2.625-.05-.722-.092-.132-.092 1.312M279.875 263c.677.688 1.287 1.25 1.356 1.25.069 0-.429-.562-1.106-1.25-.677-.687-1.287-1.25-1.356-1.25-.069 0 .429.563 1.106 1.25m59.741.063-1.241 1.312 1.313-1.241c1.219-1.152 1.427-1.384 1.24-1.384-.039 0-.63.591-1.312 1.313m-30.796 12.371c.657.052 1.67.051 2.25-.001.58-.053.043-.095-1.195-.094-1.238.001-1.712.043-1.055.095M190 309.875c-.607.619-1.048 1.125-.979 1.125.069 0 .622-.506 1.229-1.125.607-.619 1.048-1.125.979-1.125-.069 0-.622.506-1.229 1.125m-54.937 8.047c.24.063.634.063.875 0 .24-.063.043-.114-.438-.114s-.678.051-.437.114m15.892.015c3.894.039 10.194.039 14 0 3.806-.038.62-.07-7.08-.07s-10.814.032-6.92.07"/></g></svg>