<?xml version="1.0" encoding="utf-8"?>
<!-- Generator: Adobe Illustrator 28.0.0, SVG Export Plug-In . SVG Version: 6.00 Build 0)  -->
<svg version="1.1" id="Layer_1" xmlns="http://www.w3.org/2000/svg" xmlns:xlink="http://www.w3.org/1999/xlink" x="0px" y="0px"
	 viewBox="0 0 267 267" style="enable-background:new 0 0 267 267;" xml:space="preserve">
<style type="text/css">
	.st0{fill:#003059;}
</style>
<g>
	<path class="st0" d="M74.1,111.9c0,0,9.9-14.2,23.3-14.5c20.5-0.4,37.3,36.6,39.9,41.9c22.7-50.8,60.3-93.9,90.9-122.7H40.6
		c0,17.6,0.2,195.6,0.2,210.1c0,11.6-1.6,19.8-2.4,23.4c8.3-1.3,39.9-6.7,71.9-18.2c57-20.5,79.3-42.3,79.5-42.5l1.4-1.4l0.8,1.9
		c0.1,0.2,7.1,15.8,14.2,24.1c7.9,9.3,12.3,10.3,14.6,9.6c3.2-1,5.3-6.2,6.2-15c0.8-8.4,1.6-27.6,1.6-50.8c0-41.9,0-97.3,0-125.1
		c-55.3,67.8-96,169.4-96,169.4S106,111.2,74.1,111.9L74.1,111.9z"/>
</g>
</svg>
