<?xml version="1.0" encoding="utf-8"?>
<!-- Generator: Adobe Illustrator 28.0.0, SVG Export Plug-In . SVG Version: 6.00 Build 0)  -->
<svg version="1.1" id="layer" xmlns="http://www.w3.org/2000/svg" xmlns:xlink="http://www.w3.org/1999/xlink" x="0px" y="0px"
	 viewBox="0 0 156 154" style="enable-background:new 0 0 156 154;" xml:space="preserve">
<style type="text/css">
	.st0{fill:#9B65C3;}
	.st1{fill:#BE63C5;}
	.st2{fill:#BF63C6;}
	.st3{fill:#3278B1;}
	.st4{fill:#3278B2;}
	.st5{fill:#45A4EC;}
	.st6{fill:#19BB7D;}
	.st7{fill:#08C7FB;}
	.st8{fill:#59F2F6;}
	.st9{fill:#DA3757;}
	.st10{fill:#D33C4E;}
	.st11{fill:#EE5A24;}
	.st12{fill:#8BDF55;}
	.st13{fill:#25C16F;}
	.st14{fill:#FFBB00;}
	.st15{fill:#FFA800;}
</style>
<path class="st0" d="M27.2,89.2c1.7,11.1,6.9,21.1,14.4,28.6l17.5-17.5c0-17.7,9.2-34.9,25.6-44.4C84.7,55.9,27.2,89.2,27.2,89.2z"
	/>
<path class="st0" d="M59.1,100.3c-8.7,0-17.5-2.2-25.6-6.9c-2.2-1.3-4.3-2.7-6.3-4.3c1.7,11.1,6.9,21.1,14.4,28.6L59.1,100.3
	L59.1,100.3z"/>
<path class="st1" d="M59.1,100.3l-17.5,17.5c7.6,7.6,17.5,12.8,28.6,14.4l33.2-57.5C94,91.1,76.8,100.3,59.1,100.3"/>
<path class="st2" d="M66,126c-4.7-8.1-6.9-16.9-6.9-25.6l-17.5,17.5c7.6,7.6,17.5,12.8,28.6,14.4C68.7,130.3,67.3,128.2,66,126"/>
<path class="st3" d="M124.3,33.1L84.8,56c-16.4,9.5-35.9,8.8-51.2,0c-4.4,7.5-6.9,16.3-6.9,25.6c0,2.6,0.2,5.1,0.6,7.6
	c2,1.6,4.1,3,6.3,4.3c8.1,4.7,16.9,6.9,25.6,6.9l66.2-66.2C125,33.8,124.7,33.4,124.3,33.1"/>
<path class="st4" d="M33.5,93.5c8.1,4.7,16.9,6.9,25.6,6.9c0-17.7,9.2-34.9,25.6-44.4L27.1,89.2C29.2,90.7,31.3,92.2,33.5,93.5"/>
<path class="st5" d="M33.5,56c-4.4,7.5-6.9,16.3-6.9,25.6c0,2.6,0.2,5.1,0.6,7.6L84.8,56C68.3,65.4,48.8,64.8,33.5,56"/>
<path class="st6" d="M125.4,34.1c-0.3-0.3-0.7-0.7-1.1-1c-0.5-0.4-1-0.8-1.6-1.1c-1.9-1.1-4.1-1.7-6.4-1.7H77.9
	c-19,0-35.5,10.3-44.4,25.6c15.3,8.8,34.8,9.5,51.2,0c-16.4,9.5-25.6,26.7-25.6,44.4c17.7,0,34.9-9.2,44.4-25.6l22.8-39.5
	C126,34.8,125.7,34.4,125.4,34.1"/>
<path class="st7" d="M84.8,56l39.5-22.8c-0.5-0.4-1-0.8-1.6-1.1L33.5,56C48.8,64.8,68.3,65.4,84.8,56"/>
<path class="st8" d="M116.3,30.3H77.9c-19,0-35.5,10.3-44.4,25.6L122.7,32C120.8,31,118.7,30.3,116.3,30.3"/>
<path class="st9" d="M103.5,74.7l22.8-39.5c-0.3-0.4-0.6-0.7-1-1.1l-66.2,66.2c0,8.7,2.2,17.5,6.9,25.6c1.3,2.2,2.7,4.3,4.3,6.3
	c2.5,0.4,5,0.6,7.6,0.6c9.3,0,18.1-2.5,25.6-6.9C94.7,110.6,94,91.1,103.5,74.7"/>
<path class="st10" d="M59.1,100.3c0,8.7,2.2,17.5,6.9,25.6c1.3,2.2,2.7,4.3,4.3,6.3l33.2-57.5C94,91.1,76.8,100.3,59.1,100.3"/>
<path class="st11" d="M103.5,74.7l-33.2,57.6c2.5,0.4,5,0.6,7.6,0.6c9.3,0,18.1-2.5,25.6-6.9C94.7,110.6,94,91.1,103.5,74.7"/>
<path class="st12" d="M127.4,36.8c-0.3-0.6-0.7-1.1-1.1-1.6c-0.3-0.4-0.6-0.7-1-1.1c-0.3-0.3-0.7-0.7-1.1-1L84.8,56
	c-16.4,9.5-25.6,26.7-25.6,44.4c17.7,0,34.9-9.2,44.4-25.6c-9.5,16.4-8.8,35.9,0,51.2c15.3-8.9,25.6-25.4,25.6-44.4V43.2
	C129.1,40.8,128.5,38.6,127.4,36.8"/>
<path class="st13" d="M124.3,33.1L84.8,56c-16.4,9.5-25.6,26.7-25.6,44.4l66.2-66.2C125,33.8,124.7,33.4,124.3,33.1"/>
<path class="st12" d="M59.1,100.3c17.7,0,34.9-9.2,44.4-25.6l22.8-39.5c-0.3-0.4-0.6-0.7-1-1.1C125.3,34.1,59.1,100.3,59.1,100.3z"
	/>
<path class="st14" d="M126.3,35.2l-22.8,39.5c-9.5,16.4-8.8,35.9,0,51.2l23.9-89.2C127.1,36.2,126.7,35.7,126.3,35.2"/>
<path class="st15" d="M103.5,126c15.3-8.9,25.6-25.4,25.6-44.4V43.2c0-2.3-0.6-4.5-1.7-6.4L103.5,126z"/>
</svg>
