<svg xmlns="http://www.w3.org/2000/svg" xmlns:xlink="http://www.w3.org/1999/xlink" viewBox="0 0 80 80"><defs><linearGradient id="a" x1="57.65" x2="43.31" y1="21.92" y2="36.7" gradientUnits="userSpaceOnUse"><stop offset=".18" stop-color="#0052cc"/><stop offset="1" stop-color="#2684ff"/></linearGradient><linearGradient id="b" x1="41.91" x2="25.34" y1="38.81" y2="54.94" xlink:href="#a"/></defs><path fill="#2684ff" d="M72.12 5.07H38.41a15.21 15.21 0 0 0 15.21 15.21h6.21v6A15.21 15.21 0 0 0 75 41.48V8a2.92 2.92 0 0 0-2.88-2.93z"/><path fill="url(#a)" d="M55.44 21.86H21.73a15.21 15.21 0 0 0 15.21 15.21h6.21v6a15.22 15.22 0 0 0 15.21 15.21v-33.5a2.92 2.92 0 0 0-2.92-2.92z"/><path fill="url(#b)" d="M38.75 38.65H5a15.22 15.22 0 0 0 15.26 15.21h6.21v6a15.21 15.21 0 0 0 15.21 15.21V41.58a2.93 2.93 0 0 0-2.93-2.93z"/></svg>