<svg xmlns="http://www.w3.org/2000/svg" xml:space="preserve" style="enable-background:new 0 0 1080 1080" viewBox="0 0 1080 1080"><style>.st1{fill:#fff}</style><g id="Layer_1"><path d="M0 0h1100.1v1100.1H0z" style="fill:#111422"/><path d="M277.4 405.7h103.1c69.4 0 113.2 40.2 113.2 106.2v.9c0 71.2-50.9 107-115.9 108.4h-36.3v94.2h-64.1V405.7zm100 157.9c33.2 0 51.7-20.8 51.7-49.5v-.4c0-32.3-18.6-50-52.6-50h-34.9v100l35.8-.1zM542.3 405.7h67.2l69 125.6 68.1-125.6h67.7v309.6h-62.8V517.6l-73 127.8h-1.3l-72.5-126.9v196.8h-62.4V405.7z" class="st1"/><path d="M542.6 175.2c205.3 0 372.3 167 372.3 372.3s-167 372.3-372.3 372.3-372.3-167-372.3-372.3 167-372.3 372.3-372.3m0-64.7c-241.3 0-437 195.6-437 437s195.6 437 437 437c241.3 0 437-195.6 437-437s-195.6-437-437-437z" class="st1"/></g></svg>