<svg xmlns="http://www.w3.org/2000/svg" viewBox="0 0 185 143"><g fill="none" fill-rule="evenodd"><path fill="#5D2BFF" d="M57.197 28.132l-9.454 18.92c7.587 5.126 14.28 11.373 19.95 17.62l10.246-20.595c.84-1.75 2.57-2.856 4.463-2.856h4.121c1.895 0 3.625 1.106 4.465 2.856l10.01 20.099a116.517 116.517 0 0 1 20.226-17.006l-9.513-19.038c-6.527-13.06-12.58-16.225-21.465-17.493-1.558-.222-3.993-.383-5.793-.383-1.798 0-4.233.161-5.791.383-11.518 1.646-16.43 7.417-21.465 17.493zM84.3 86.629a118.877 118.877 0 0 1 9.555-14.189l-9.392-19.577-9.695 20.212a165.58 165.58 0 0 1 9.532 13.554zM38.716 53.36l-2.043-1.217c-1.154-.686-1.58-2.185-.971-3.405l12.64-25.3h.002C54.424 11.273 61.673 2.712 77.296.482 79.309.193 82.185 0 84.453 0c2.27 0 5.145.193 7.159.48 15.623 2.23 22.873 10.792 28.951 22.959l9.271 18.55c15.192-8.262 32.208-13.08 49.92-13.688 3.058-.105 5.594 2.683 5.078 5.987-.388 2.465-2.57 4.184-4.993 4.272-37.86 1.393-72.243 23.773-89.78 58.464-.038.075-.085.141-.127.21a.05.05 0 0 1 .01.008c-.042.076-.096.142-.14.214-.059.092-.115.183-.177.269-1.185 1.715-3.107 2.762-5.161 2.762h-.02c-1.89 0-3.675-.892-4.846-2.418l-.634-.828c-3.997-7.047-18.715-31.046-40.248-43.88zM179.68 65.174c3.09-.154 5.642 2.61 5.164 5.93-.355 2.47-2.518 4.196-4.939 4.328-9.986.54-19.84 3.47-28.859 8.255.183.347.376.72.598 1.141 2.816 5.388 7.7 14.807 14.518 27.992 3.612 6.991 3.662 14.17.134 20.219-3.34 5.733-9.633 9.584-15.656 9.584l-9.847.006c-7.357 0-17.799-.688-24.095-16.547l-1.621-4.078c-2.319 3.544-4.823 7.044-7.145 10.22-7.447 10.175-16.01 10.405-22.99 10.405h-.985c-6.973 0-15.537-.228-22.982-10.406-2.447-3.346-4.716-6.794-6.903-10.201l-1.915 4.188c-6.302 15.734-16.706 16.42-24.045 16.42l-9.847-.007c-6.022 0-12.315-3.851-15.656-9.584-3.526-6.05-3.478-13.228.135-20.219l9.157-17.71 9.25-17.893c.653-1.262 2.181-1.75 3.396-1.055 9.294 5.317 23.258 16.717 35.94 37.239 2.752 4.457 5.467 8.587 8.44 12.65 4.632 6.332 9.198 6.328 15.522 6.322 6.325.003 10.899.008 15.53-6.322 3.691-5.045 7.854-10.919 10.734-16.208 14.012-25.74 41.084-43.275 68.967-44.669zm-22.308 52.466c-8.658-16.747-12.848-24.803-14.876-28.678-8.275 5.886-15.493 13.443-20.954 22.246l4.371 10.989c4.06 10.227 9.022 10.206 15.884 10.173l8.843-.004c2.15 0 5.375-1.615 7.12-4.608 1.703-2.92 1.572-6.325-.388-10.118zm-114.38 4.56c.025-.066 3.311-7.254 4.647-10.172-5.677-8.565-11.837-16.596-21.114-23.383L20.692 99.93l-9.157 17.713c-1.96 3.791-2.092 7.197-.389 10.116 1.745 2.993 4.97 4.608 7.12 4.608l8.843.004c6.87.033 11.824.054 15.884-10.17z"/><g fill="#000" fill-rule="nonzero" opacity=".2"><path d="M50.39 129.999C35.955 112 23.002 100.569 11.535 95.704c-.018-.008 2.004-3.92 6.066-11.737 3.83 1.6 6.732 3.14 8.708 4.618 10.475 7.835 18.342 17.906 27.64 33.59.07.119-1.116 2.726-3.557 7.824zM118.38 130.126c14.513-18.056 27.502-29.517 38.97-34.381.018-.008-2.08-4.028-6.295-12.06-3.696 2.066-6.54 3.825-8.532 5.277-9.718 7.08-14.047 11.946-20.98 22.234-2.489 3.694-4.339 6.826-6.46 10.823-.065.122 1.034 2.824 3.298 8.107z"/></g></g></svg>